<?xml version="1.0" encoding="utf-8"?>
<!-- Generator: Adobe Illustrator 21.0.2, SVG Export Plug-In . SVG Version: 6.00 Build 0)  -->
<svg version="1.1" id="Layer_1" xmlns="http://www.w3.org/2000/svg" xmlns:xlink="http://www.w3.org/1999/xlink" x="0px" y="0px"
	 viewBox="0 0 85.04 85.04" style="enable-background:new 0 0 85.04 85.04;" xml:space="preserve">
<style type="text/css">
	.st0{fill:#003299;}
</style>
<path class="st0" d="M77.13,49.986c0.139,0.003,0.16,0.072,0.047,0.153l-3.461,2.485c-0.113,0.081-0.174,0.257-0.134,0.39
	l1.193,4.071c0.039,0.134-0.018,0.173-0.128,0.087l-3.355-2.627c-0.11-0.086-0.294-0.092-0.409-0.014l-3.691,2.492
	c-0.115,0.078-0.173,0.034-0.129-0.098l1.361-4.018c0.045-0.132-0.008-0.31-0.118-0.396l-3.355-2.627
	c-0.11-0.086-0.085-0.154,0.054-0.151l4.26,0.088c0.139,0.003,0.293-0.101,0.342-0.232l1.59-4.257
	c0.049-0.13,0.119-0.127,0.156,0.007l1.195,4.308c0.037,0.134,0.182,0.246,0.321,0.249L77.13,49.986z M79.557,33.113l-3.834-0.08
	c-0.125-0.003-0.255-0.103-0.289-0.224l-1.076-3.877c-0.033-0.121-0.097-0.123-0.141-0.006l-1.431,3.831
	c-0.044,0.117-0.182,0.211-0.307,0.209l-3.834-0.08c-0.125-0.003-0.147,0.058-0.048,0.136l3.019,2.364
	c0.099,0.077,0.146,0.237,0.106,0.356l-1.225,3.617c-0.04,0.119,0.012,0.158,0.116,0.088l3.322-2.243
	c0.104-0.07,0.269-0.064,0.368,0.013l3.019,2.364c0.099,0.077,0.151,0.042,0.115-0.078l-1.074-3.664
	c-0.035-0.12,0.019-0.278,0.121-0.351L79.6,33.25C79.702,33.177,79.682,33.115,79.557,33.113z M66.225,19.409l-1.089,3.215
	c-0.036,0.105,0.011,0.141,0.103,0.078l2.953-1.994c0.092-0.062,0.239-0.057,0.327,0.011l2.684,2.101
	c0.088,0.069,0.134,0.037,0.102-0.069l-0.955-3.257c-0.031-0.107,0.017-0.247,0.107-0.312l2.769-1.988
	c0.09-0.065,0.073-0.12-0.038-0.122l-3.408-0.071c-0.111-0.002-0.227-0.092-0.257-0.199l-0.956-3.446
	c-0.03-0.107-0.086-0.11-0.125-0.005l-1.272,3.406c-0.039,0.104-0.162,0.188-0.273,0.185L63.49,16.87
	c-0.111-0.002-0.131,0.052-0.043,0.121l2.684,2.101C66.218,19.161,66.261,19.303,66.225,19.409z M56.917,6.098
	c-0.097-0.002-0.198-0.081-0.224-0.174l-0.837-3.015c-0.026-0.094-0.075-0.096-0.109-0.005l-1.113,2.98
	c-0.034,0.091-0.142,0.164-0.239,0.162l-2.982-0.062c-0.097-0.002-0.114,0.045-0.038,0.106l2.348,1.839
	c0.077,0.06,0.114,0.185,0.083,0.277l-0.953,2.813c-0.031,0.092,0.009,0.123,0.09,0.069l2.584-1.744
	c0.081-0.055,0.21-0.05,0.286,0.01l2.348,1.839c0.077,0.06,0.117,0.033,0.09-0.061l-0.835-2.85
	c-0.027-0.094,0.015-0.216,0.094-0.273l2.423-1.74c0.079-0.057,0.064-0.105-0.033-0.107L56.917,6.098z M36.893,4.357
	c0.066,0.051,0.098,0.158,0.071,0.237l-0.817,2.411c-0.027,0.079,0.008,0.106,0.077,0.059l2.214-1.495
	c0.069-0.047,0.18-0.043,0.245,0.009l2.013,1.576c0.066,0.051,0.1,0.028,0.077-0.052l-0.716-2.443
	c-0.024-0.08,0.013-0.186,0.081-0.234l2.077-1.491c0.068-0.049,0.055-0.09-0.028-0.092l-2.556-0.053
	c-0.083-0.002-0.17-0.069-0.192-0.149l-0.717-2.585c-0.022-0.08-0.065-0.082-0.094-0.004l-0.954,2.554
	c-0.029,0.078-0.121,0.141-0.205,0.139L34.913,2.69c-0.084-0.002-0.098,0.039-0.032,0.09L36.893,4.357z M20.867,9.699
	c0.055,0.043,0.081,0.132,0.059,0.198l-0.681,2.009c-0.022,0.066,0.007,0.088,0.064,0.049l1.845-1.246
	c0.058-0.039,0.15-0.036,0.204,0.007l1.677,1.313c0.055,0.043,0.084,0.023,0.064-0.043L23.504,9.95
	c-0.02-0.067,0.011-0.155,0.067-0.195l1.73-1.243c0.056-0.041,0.046-0.075-0.024-0.076l-2.13-0.044
	c-0.07-0.001-0.142-0.058-0.16-0.125L22.39,6.113c-0.019-0.067-0.054-0.069-0.078-0.003l-0.795,2.128
	c-0.024,0.065-0.101,0.117-0.171,0.116l-2.13-0.044c-0.07-0.001-0.082,0.032-0.027,0.075L20.867,9.699z M12.468,23.879l-0.477-1.629
	c-0.016-0.053,0.009-0.124,0.054-0.156l1.384-0.994c0.045-0.032,0.037-0.06-0.019-0.061l-1.704-0.035
	c-0.056-0.001-0.113-0.046-0.128-0.1L11.1,19.181c-0.015-0.054-0.043-0.055-0.062-0.003l-0.636,1.703
	c-0.019,0.052-0.081,0.094-0.137,0.093l-1.704-0.035c-0.056-0.001-0.065,0.026-0.022,0.06l1.342,1.051
	c0.044,0.034,0.065,0.106,0.047,0.158l-0.545,1.607c-0.018,0.053,0.005,0.07,0.051,0.039l1.476-0.997
	c0.046-0.031,0.12-0.029,0.164,0.006l1.342,1.051C12.461,23.948,12.484,23.933,12.468,23.879z M7.771,38.13
	c-0.042-0.001-0.085-0.034-0.096-0.075l-0.359-1.292c-0.011-0.04-0.032-0.041-0.047-0.002l-0.477,1.277
	c-0.015,0.039-0.061,0.07-0.102,0.07l-1.278-0.027C5.37,38.08,5.363,38.1,5.395,38.126l1.006,0.788
	c0.033,0.026,0.049,0.079,0.035,0.119l-0.408,1.206c-0.013,0.04,0.004,0.053,0.039,0.029l1.107-0.748
	c0.035-0.023,0.09-0.021,0.123,0.004l1.006,0.788c0.033,0.026,0.05,0.014,0.038-0.026l-0.358-1.221
	c-0.012-0.04,0.006-0.093,0.04-0.117l1.038-0.746c0.034-0.024,0.028-0.045-0.014-0.046L7.771,38.13z M12.681,54.578
	c-0.028-0.001-0.057-0.023-0.064-0.05l-0.239-0.862c-0.007-0.027-0.021-0.027-0.031-0.001l-0.318,0.851
	c-0.01,0.026-0.04,0.047-0.068,0.046l-0.852-0.018c-0.028-0.001-0.033,0.013-0.011,0.03l0.671,0.525
	c0.022,0.017,0.033,0.053,0.024,0.079l-0.272,0.804c-0.009,0.026,0.003,0.035,0.026,0.02l0.738-0.498
	c0.023-0.016,0.06-0.014,0.082,0.003l0.671,0.525c0.022,0.017,0.033,0.009,0.026-0.017l-0.239-0.814
	c-0.008-0.027,0.004-0.062,0.027-0.078l0.692-0.497c0.023-0.016,0.018-0.03-0.009-0.031L12.681,54.578z M42.792,19.538l-7.276,1.408
	c-0.161,0.031-0.297,0.058-0.3,0.06c-0.004,0.002-0.029,0.136-0.057,0.298L24.444,84.753c-0.027,0.162,0.085,0.295,0.249,0.295
	h12.183c0.164,0,0.311-0.134,0.326-0.298l5.857-64.971C43.073,19.615,42.953,19.507,42.792,19.538z M53.659,17.435l-6.188,1.198
	c-0.161,0.031-0.305,0.191-0.32,0.354L41.223,84.75c-0.015,0.164,0.108,0.298,0.272,0.298h18.2c0.164,0,0.287-0.134,0.272-0.298
	l-5.989-67.074C53.964,17.512,53.82,17.403,53.659,17.435z M30.484,23.512l-5.269,2.789c-0.145,0.077-0.278,0.274-0.295,0.437
	L18.94,84.75c-0.017,0.164,0.104,0.297,0.268,0.297h0.826c0.164,0,0.321-0.133,0.349-0.295l10.316-61.086
	C30.725,23.504,30.629,23.435,30.484,23.512z"/>
</svg>
